<?xml version="1.0" standalone="no"?>
<!DOCTYPE svg PUBLIC "-//W3C//DTD SVG 20010904//EN"
 "http://www.w3.org/TR/2001/REC-SVG-20010904/DTD/svg10.dtd">
<svg version="1.0" xmlns="http://www.w3.org/2000/svg"
 width="700.000000pt" height="700.000000pt" viewBox="0 0 700.000000 700.000000"
 preserveAspectRatio="xMidYMid meet">
<metadata>
Created by potrace 1.11, written by Peter Selinger 2001-2013
</metadata>
<g transform="translate(0.000000,700.000000) scale(0.100000,-0.100000)"
fill="#000000" stroke="none">
<path d="M3034 5625 c-17 -9 -72 -55 -123 -102 -336 -313 -597 -767 -769
-1338 -72 -237 -251 -934 -287 -1117 l-18 -87 -51 -17 c-128 -42 -238 -114
-255 -167 -20 -60 16 -149 67 -168 21 -8 45 -5 115 16 49 15 90 25 92 23 2 -2
-14 -70 -35 -151 -43 -163 -100 -476 -126 -685 -16 -131 -16 -134 3 -160 34
-46 80 -55 253 -49 164 6 219 16 250 47 29 29 49 112 66 275 8 83 26 220 40
305 24 150 87 428 104 460 11 21 59 35 201 59 143 24 308 35 386 26 l60 -7 6
-86 c14 -197 90 -721 123 -848 20 -81 72 -181 116 -225 49 -50 115 -64 229
-49 152 21 249 74 249 137 0 16 -20 114 -44 218 -126 539 -128 554 -226 2000
-89 1316 -105 1497 -133 1552 -24 45 -74 89 -136 119 -71 33 -117 39 -157 19z
m-74 -1240 c6 -231 17 -580 25 -775 8 -195 15 -377 15 -405 l0 -50 -168 0
c-167 -1 -293 -13 -391 -39 l-53 -14 7 47 c21 145 186 823 260 1066 66 220
176 476 254 595 35 54 36 54 38 25 1 -16 7 -219 13 -450z"/>
<path d="M4660 2189 c-167 -9 -251 -23 -284 -44 -38 -25 -49 -81 -41 -200 8
-116 31 -181 67 -190 13 -3 111 1 218 10 452 36 575 33 1103 -26 189 -21 273
-27 286 -20 10 6 24 25 30 42 16 47 14 262 -3 304 -25 58 -49 67 -254 86 -505
48 -786 58 -1122 38z"/>
</g>
</svg>
